<svg width="108" height="22" viewBox="0 0 108 22" fill="none" xmlns="http://www.w3.org/2000/svg">
<path d="M1.4375 5.57812H4.99219C6.61198 5.57812 7.78646 5.8099 8.51562 6.27344C9.25 6.73177 9.61719 7.46354 9.61719 8.46875C9.61719 9.15104 9.45573 9.71094 9.13281 10.1484C8.8151 10.5859 8.39062 10.849 7.85938 10.9375V11.0156C8.58333 11.1771 9.10417 11.4792 9.42188 11.9219C9.74479 12.3646 9.90625 12.9531 9.90625 13.6875C9.90625 14.7292 9.52865 15.5417 8.77344 16.125C8.02344 16.7083 7.0026 17 5.71094 17H1.4375V5.57812ZM3.85938 10.1016H5.26562C5.92188 10.1016 6.39583 10 6.6875 9.79688C6.98438 9.59375 7.13281 9.25781 7.13281 8.78906C7.13281 8.35156 6.97135 8.03906 6.64844 7.85156C6.33073 7.65885 5.82552 7.5625 5.13281 7.5625H3.85938V10.1016ZM3.85938 12.0234V15H5.4375C6.10417 15 6.59635 14.8724 6.91406 14.6172C7.23177 14.362 7.39062 13.9714 7.39062 13.4453C7.39062 12.4974 6.71354 12.0234 5.35938 12.0234H3.85938ZM21.8828 8.26562H24.5078L21.0469 12.4531L24.8125 17H22.1094L18.5391 12.5703V17H16.1562V8.26562H18.5391V12.5078L21.8828 8.26562ZM31.6094 17L31.1484 15.8125H31.0859C30.6849 16.3177 30.2708 16.6693 29.8438 16.8672C29.4219 17.0599 28.8698 17.1562 28.1875 17.1562C27.349 17.1562 26.6875 16.9167 26.2031 16.4375C25.724 15.9583 25.4844 15.276 25.4844 14.3906C25.4844 13.4635 25.8073 12.7812 26.4531 12.3438C27.1042 11.901 28.0833 11.6562 29.3906 11.6094L30.9062 11.5625V11.1797C30.9062 10.2943 30.4531 9.85156 29.5469 9.85156C28.849 9.85156 28.0286 10.0625 27.0859 10.4844L26.2969 8.875C27.3021 8.34896 28.4167 8.08594 29.6406 8.08594C30.8125 8.08594 31.7109 8.34115 32.3359 8.85156C32.9609 9.36198 33.2734 10.138 33.2734 11.1797V17H31.6094ZM30.9062 12.9531L29.9844 12.9844C29.2917 13.0052 28.776 13.1302 28.4375 13.3594C28.099 13.5885 27.9297 13.9375 27.9297 14.4062C27.9297 15.0781 28.3151 15.4141 29.0859 15.4141C29.638 15.4141 30.0781 15.2552 30.4062 14.9375C30.7396 14.6198 30.9062 14.1979 30.9062 13.6719V12.9531ZM42.9609 8.26562V10.0547H40.1016V17H37.7188V10.0547H34.8516V8.26562H42.9609ZM50.1406 17L49.6797 15.8125H49.6172C49.2161 16.3177 48.8021 16.6693 48.375 16.8672C47.9531 17.0599 47.401 17.1562 46.7188 17.1562C45.8802 17.1562 45.2188 16.9167 44.7344 16.4375C44.2552 15.9583 44.0156 15.276 44.0156 14.3906C44.0156 13.4635 44.3385 12.7812 44.9844 12.3438C45.6354 11.901 46.6146 11.6562 47.9219 11.6094L49.4375 11.5625V11.1797C49.4375 10.2943 48.9844 9.85156 48.0781 9.85156C47.3802 9.85156 46.5599 10.0625 45.6172 10.4844L44.8281 8.875C45.8333 8.34896 46.9479 8.08594 48.1719 8.08594C49.3438 8.08594 50.2422 8.34115 50.8672 8.85156C51.4922 9.36198 51.8047 10.138 51.8047 11.1797V17H50.1406ZM49.4375 12.9531L48.5156 12.9844C47.8229 13.0052 47.3073 13.1302 46.9688 13.3594C46.6302 13.5885 46.4609 13.9375 46.4609 14.4062C46.4609 15.0781 46.8464 15.4141 47.6172 15.4141C48.1693 15.4141 48.6094 15.2552 48.9375 14.9375C49.2708 14.6198 49.4375 14.1979 49.4375 13.6719V12.9531ZM62.0859 17H59.7031V10.0547H57.5078C57.3411 12.0078 57.138 13.4661 56.8984 14.4297C56.6589 15.388 56.3385 16.0833 55.9375 16.5156C55.5417 16.9427 55.0208 17.1562 54.375 17.1562C53.8229 17.1562 53.3698 17.0729 53.0156 16.9062V15C53.2708 15.1042 53.526 15.1562 53.7812 15.1562C54.0781 15.1562 54.3255 14.9427 54.5234 14.5156C54.7266 14.0885 54.9062 13.3776 55.0625 12.3828C55.224 11.3828 55.362 10.0104 55.4766 8.26562H62.0859V17ZM66.4922 12.6172C66.4922 13.4818 66.6328 14.1354 66.9141 14.5781C67.2005 15.0208 67.6641 15.2422 68.3047 15.2422C68.9401 15.2422 69.3958 15.0234 69.6719 14.5859C69.9531 14.1432 70.0938 13.487 70.0938 12.6172C70.0938 11.7526 69.9531 11.1042 69.6719 10.6719C69.3906 10.2396 68.9297 10.0234 68.2891 10.0234C67.6536 10.0234 67.1953 10.2396 66.9141 10.6719C66.6328 11.099 66.4922 11.7474 66.4922 12.6172ZM72.5312 12.6172C72.5312 14.0391 72.1562 15.151 71.4062 15.9531C70.6562 16.7552 69.612 17.1562 68.2734 17.1562C67.4349 17.1562 66.6953 16.974 66.0547 16.6094C65.4141 16.2396 64.9219 15.7109 64.5781 15.0234C64.2344 14.3359 64.0625 13.5339 64.0625 12.6172C64.0625 11.1901 64.4349 10.0807 65.1797 9.28906C65.9245 8.4974 66.9714 8.10156 68.3203 8.10156C69.1589 8.10156 69.8984 8.28385 70.5391 8.64844C71.1797 9.01302 71.6719 9.53646 72.0156 10.2188C72.3594 10.901 72.5312 11.7005 72.5312 12.6172ZM80.5312 8.26562V10.0547H76.8828V17H74.5V8.26562H80.5312Z" fill="#A65CF0"/>
<line y1="21" x2="81" y2="21" stroke="#A65CF0" stroke-width="2"/>
<circle cx="97" cy="11" r="10" fill="#C998FB" stroke="#A65CF0" stroke-width="2"/>
<path d="M95.625 7.5625L99.0625 11L95.625 14.4375" stroke="white" stroke-width="2" stroke-linecap="round" stroke-linejoin="round"/>
</svg>
